<svg xmlns="http://www.w3.org/2000/svg" xmlns:xlink="http://www.w3.org/1999/xlink" aria-hidden="true" role="img" class="iconify iconify--logos" width="31.88" height="32" preserveAspectRatio="xMidYMid meet" viewBox="0 0 256 257"><defs><linearGradient id="IconifyId1813088fe1fbc01fb466" x1="-.828%" x2="100.411%" y1="9.035%" y2="90.711%"><stop offset="0%" stop-color="#41D1FF"></stop><stop offset="100%" stop-color="#BD34FE"></stop></linearGradient><linearGradient id="IconifyId1813088fe1fbc01fb467" x1="15.31%" x2="85.657%" y1="15.998%" y2="85.656%"><stop offset="0%" stop-color="#FFEA83"></stop><stop offset="8.333%" stop-color="#FFDD35"></stop><stop offset="100%" stop-color="#FFA800"></stop></linearGradient></defs><path fill="url(#IconifyId1813088fe1fbc01fb466)" d="M255.153 37.938L134.897 252.97a12.73 12.73 0 0 1-23.613-4.375l-34.055-136.22a12.73 12.73 0 0 1 7.128-15.047L241.798 33.687a12.73 12.73 0 0 1 13.355 4.25z"></path><path fill="url(#IconifyId1813088fe1fbc01fb467)" d="M120.837 4.019L10.183 97.099a12.73 12.73 0 0 0 1.11 22.6l141.26 52.31a12.73 12.73 0 0 0 16.346-10.666l21.1-151.176a12.73 12.73 0 0 0-17.163-16.148z"></path></svg>